<?xml version="1.0" encoding="utf-8"?>
<!-- Generator: Adobe Illustrator 19.2.0, SVG Export Plug-In . SVG Version: 6.00 Build 0)  -->
<svg version="1.1" id="Layer_1" xmlns="http://www.w3.org/2000/svg" xmlns:xlink="http://www.w3.org/1999/xlink" x="0px" y="0px"
	 viewBox="0 0 80 80" style="enable-background:new 0 0 80 80;" xml:space="preserve">
<style type="text/css">
	.st0{fill:#00A651;}
</style>
<g>
	<g>
		<path class="st0" d="M77.4,64.1C67.7,73.7,53.5,77.5,40.2,75c-13.1-2.5-26.6-11.7-26.9-26.2c-0.4-14.3,12.9-24.9,26.6-24.3
			C47,24.8,55.1,28,58.7,34.6c3.9,7.1,1,16-6,19.8c-7.2,3.9-21.8,1.6-21.5-8.8c0.2-5.2,5.1-8.9,10.1-8.8c3.1,0.1,8.1,2.4,7.8,6.3
			c-0.1,1.8-1.5,3.6-2.9,4.4c-0.8,0.7-1.8,1-2.9,0.7c-2.9,0.4-4.1-1.4-3.7-5.7c1-1.3-1.2-2.5-2.2-1.3C32,48.7,44,53.8,49.3,48.5
			c6.8-6.8-2.1-14.7-9.4-14.2c-8.7,0.6-14.3,10.2-9.3,17.7c5,7.6,16.7,8.5,24,4.2c8.1-4.8,11-15.5,6-23.5C55.4,24.4,44.3,21,35,22.1
			C15.1,24.5,3.5,47.4,16.2,64c14.8,19.4,46.7,18,63,1.9C80.3,64.7,78.6,62.9,77.4,64.1L77.4,64.1z"
			/>
	</g>
</g>
</svg>
